<svg width="1014" height="1014" viewBox="0 0 1014 1014" fill="none" xmlns="http://www.w3.org/2000/svg">
    <path d="M473.973 0.636292C413.118 7.56763 365.031 50.6042 349.174 112.469C347.733 118.366 346.291 123.435 346.085 123.642C345.982 123.849 345.261 123.539 344.541 122.918C341.143 120.125 319.313 110.09 309.531 106.779C291.408 100.676 280.493 98.8134 259.797 98.1927C239.306 97.572 228.597 98.6065 212.945 102.538C183.29 110.193 160.019 125.091 141.588 148.368C121.92 173.093 108.637 201.853 104.313 229.268C102.356 241.889 102.356 266.097 104.313 279.443C107.299 299.202 114.095 321.135 123.568 341.308C125.936 346.274 127.584 350.412 127.378 350.619C127.172 350.722 121.611 352.584 115.124 354.86C34.3962 382.068 -5.55598 440.623 0.622193 522.248C4.02019 565.801 16.6854 595.699 42.016 619.701C59.7267 636.357 86.7048 651.047 115.639 659.634C119.655 660.875 123.362 662.013 124.083 662.22C124.803 662.427 122.641 668.531 118.213 678.462C110.285 696.256 102.768 717.774 99.5759 731.637C96.8987 743.534 95.869 768.777 97.6195 780.777C100.4 800.123 108.74 819.986 123.465 842.022C147.869 878.851 170.522 897.783 203.163 908.749C220.977 914.749 227.773 915.68 252.074 915.68C276.89 915.68 285.745 914.336 305.824 907.301C315.915 903.783 334.861 894.679 341.143 890.438C342.893 889.196 344.746 888.265 345.261 888.265C345.879 888.265 346.909 891.369 347.63 895.197C351.439 918.06 365.546 945.371 383.154 964.407C405.499 988.408 436.286 1006 467.074 1012.1C479.946 1014.58 522.678 1014.69 535.446 1012.1C580.135 1003.2 619.16 972.994 639.96 931.198C645.109 920.853 650.875 905.645 653.14 895.817C654.17 891.679 655.097 888.265 655.303 888.265C655.509 888.265 662.099 890.955 669.821 894.369C725.322 918.163 758.169 922.612 793.694 911.025C815.008 904.094 843.84 885.472 866.699 863.85C889.353 842.539 904.489 811.193 909.123 776.018C910.77 763.294 909.741 737.327 907.063 725.74C903.047 708.257 895.531 691.29 886.058 678.669L881.527 672.772L903.768 661.703C938.984 644.012 956.077 632.839 973.17 616.287C993.455 596.631 1004.68 576.25 1011.06 547.594C1013.84 535.283 1014.98 488.522 1013.02 471.349C1007.46 423.036 984.393 388.172 944.544 368.206C932.291 361.999 918.802 357.24 899.65 352.377L882.66 348.032L891 331.273C907.578 297.961 914.374 268.166 912.109 239.2C910.255 216.026 903.047 195.542 889.044 173.921C877.511 156.23 852.695 129.436 839.618 120.642C799.048 93.4338 743.033 88.2612 689.077 106.779C679.604 109.986 660.966 118.263 655.715 121.47L652.111 123.746L649.33 112.78C634.297 54.7424 589.299 12.6368 531.121 2.08466C520.721 0.222473 485.918 -0.708618 473.973 0.636292ZM525.458 13.361C562.733 32.4999 607.01 72.226 641.196 117.332C648.404 126.849 648.713 126.539 634.915 124.263C597.022 118.056 567.161 124.056 542.242 142.988C534.21 149.092 517.735 165.851 511.557 174.231C508.983 177.748 506.718 180.542 506.409 180.645C506.1 180.645 503.423 177.438 500.539 173.61C497.553 169.679 490.963 162.541 485.918 157.575C466.662 138.953 444.318 127.78 417.031 123.228C404.057 121.056 371.724 121.573 359.265 124.159C355.043 125.091 351.439 125.711 351.337 125.504C351.234 125.401 355.249 119.918 360.398 113.4C406.116 54.7424 444.833 21.8442 486.844 5.91241L497.553 1.87775L506.306 4.98132C511.145 6.6366 519.795 10.4644 525.458 13.361ZM310.252 123.228C324.256 124.884 335.067 126.435 339.804 127.47C342.378 127.987 341.966 128.505 333.111 134.401C319.828 143.195 299.749 163.575 290.893 177.128C279.773 193.99 273.08 210.44 269.888 228.751C268.034 239.924 267.828 260.821 269.579 271.994C270.197 276.443 270.608 280.374 270.402 280.581C270.094 280.788 265.769 280.477 260.723 279.857C244.145 277.788 223.448 279.857 207.591 285.236C182.981 293.512 157.342 312.962 139.322 336.963C130.467 348.757 131.702 350.619 128.51 321.238C122.641 266.718 123.877 234.234 133.144 195.646C136.851 180.438 147.148 148.678 149.619 144.85C151.473 141.953 169.904 134.091 184.32 130.056C196.264 126.746 215.211 123.228 229.935 121.78C243.836 120.332 294.394 121.263 310.252 123.228ZM787.104 124.159C810.478 127.47 831.587 132.746 850.842 139.988L861.139 143.919L866.287 154.471C887.396 197.198 891.824 250.372 880.703 325.893C879.262 335.515 878.129 343.894 878.129 344.411C878.129 344.929 874.422 340.17 869.891 333.859C844.664 298.995 822.319 284.098 785.971 278.305C779.69 277.374 765.583 276.443 749.829 276.132L723.983 275.512L724.807 271.787C725.322 269.718 726.043 261.959 726.352 254.614C727.896 219.854 716.158 187.99 690.93 159.023C683.825 150.954 670.645 139.16 661.893 133.263C657.98 130.677 656.023 128.815 656.847 128.505C659.01 127.78 682.487 124.987 696.902 123.746C704.007 123.228 711.421 122.504 713.378 122.297C722.336 121.263 776.292 122.608 787.104 124.159ZM374.093 136.263C413.324 146.195 454.409 160.989 490.448 178.059L502.805 183.955L491.478 186.852C454.409 196.37 428.255 217.474 410.75 252.028L404.778 263.925L395.099 260.614C380.889 255.855 368.841 253.786 354.014 253.683C339.392 253.58 329.713 255.131 316.533 259.373C306.648 262.683 290.79 270.235 281.523 276.236C278.331 278.305 275.757 279.753 275.757 279.546C275.757 277.684 281.214 261.959 286.672 248.096C298.41 218.509 315.091 185.404 336.2 150.333C341.04 142.264 345.776 134.401 346.6 132.953L348.247 130.263L357 132.229C361.839 133.263 369.562 135.126 374.093 136.263ZM659.524 144.436C678.059 174.852 700.094 222.13 714.51 262.58L718.423 273.649L711.833 268.994C704.11 263.511 696.49 259.994 685.782 256.89C679.192 255.028 675.279 254.614 662.408 254.614C645.212 254.614 636.665 256.062 618.851 261.856L608.349 265.27L604.333 256.683C599.184 245.717 592.285 234.958 584.048 225.13C569.014 207.232 550.686 195.439 525.973 187.887C520.001 186.128 514.234 184.266 513.102 183.852C511.557 183.231 514.028 181.576 524.943 176.3C563.248 157.471 600.523 143.091 635.533 133.47C642.328 131.608 648.713 130.16 649.433 130.263C650.257 130.367 654.788 136.781 659.524 144.436ZM532.151 201.956C539.256 206.612 550.068 214.578 556.349 219.543C569.014 229.785 593.521 253.476 601.347 262.994L606.392 269.304L631.826 269.925C656.435 270.442 675.176 272.098 694.328 275.305C711.009 278.201 719.041 280.167 720.276 281.822C722.13 284.098 727.381 300.754 729.75 311.513C733.971 331.066 736.752 355.791 737.987 385.276L738.914 406.173L743.857 410.518C767.745 430.795 797.813 469.28 812.846 498.764L818.921 510.454L814.185 517.489C811.61 521.42 807.698 527.834 805.535 531.869C794.003 552.766 781.543 567.664 753.742 594.148L738.914 608.114L738.708 633.15C738.502 654.978 738.09 660.047 735.722 673.6C733.148 687.669 726.558 714.878 721.821 730.396C719.659 737.534 721.409 736.706 699.477 741.258C674.97 746.431 660.554 747.879 635.121 747.983C612.055 747.983 603.612 747.362 604.745 745.396C605.156 744.879 604.951 744.465 604.539 744.465C604.024 744.465 599.699 748.914 594.963 754.397C586.416 764.121 572.515 777.053 558.408 788.433C544.713 799.502 506.409 824.124 502.908 824.124C501.157 824.124 480.151 811.503 466.662 802.296C449.364 790.502 431.035 775.294 416.722 760.811C403.748 747.569 403.645 747.569 398.908 747.569C384.905 747.569 325.182 739.499 295.424 733.499C285.539 731.534 277.301 729.878 277.198 729.671C276.272 728.637 269.27 697.497 267.21 684.98C263.298 661.703 261.959 643.288 262.68 620.839L263.298 601.079L247.543 584.94C223.345 560.215 212.842 546.145 196.882 517.592L188.954 503.212L191.219 498.453C197.603 485.108 212.534 465.452 234.981 440.623C243.013 431.829 252.074 421.691 255.266 418.07L261.032 411.553L261.753 394.69C262.886 368.102 265.357 336.549 267.519 321.859C270.094 304.065 273.697 287.305 275.345 285.753C276.89 284.202 302.323 277.788 318.592 274.891C341.246 270.856 358.03 269.304 383.051 269.201L407.352 269.098L427.328 250.786C459.146 221.612 475.209 208.267 495.494 193.99L506.718 186.128L512.999 189.749C516.5 191.714 525.046 197.198 532.151 201.956ZM745.401 288.34C787.722 302.409 833.749 324.755 874.937 351.136C879.159 353.929 857.638 426.864 841.06 465.659C833.955 482.211 823.658 503.419 822.628 503.419C822.113 503.419 821.496 501.66 821.084 499.488C820.157 493.281 815.523 479.935 811.302 470.831C799.975 446.52 779.69 425.002 754.256 410.104C744.268 404.207 743.239 403.38 743.754 401C743.959 399.552 745.504 392.103 747.049 384.448C749.417 372.24 749.829 367.999 749.829 351.343C749.829 334.894 749.52 331.066 747.563 324.031C745.092 315.134 737.061 297.237 732.221 290.099C727.896 283.788 727.587 283.064 728.617 283.064C729.132 283.064 736.752 285.443 745.401 288.34ZM268.549 286.685C268.549 286.891 266.696 289.581 264.43 292.581C255.678 304.168 249.191 319.79 246.411 335.721C243.013 355.171 245.484 377.62 253.824 401.828C255.163 406.07 256.193 409.587 255.987 409.69C255.884 409.794 251.559 412.173 246.411 414.863C213.048 432.761 195.544 455.624 188.336 490.798L186.585 499.488L178.76 482.625C164.756 452.21 156.518 431.416 147.148 402.656C142.411 388.379 133.659 356.205 133.659 353.412C133.659 352.17 157.342 337.377 175.876 327.238C199.868 313.996 224.993 302.306 252.589 291.754C267.107 286.167 268.549 285.753 268.549 286.685ZM897.281 364.895C934.35 392.828 966.683 425.933 987.688 457.382C995.926 469.693 1005.71 488.936 1009 499.074L1011.37 506.419L1007.97 515.523C993.97 552.87 963.594 594.768 925.907 628.701C912.006 641.219 896.663 653.633 886.058 660.875C879.879 665.117 879.879 665.117 880.6 662.323C882.763 653.737 884.307 637.598 884.307 623.942C884.307 598.493 880.188 579.664 870.406 559.801C861.551 542.007 849.503 527.42 833.234 515.109L825.614 509.419L837.353 497.109C863.198 470.211 876.79 448.485 883.277 423.657C887.396 407.725 887.087 375.241 882.557 356.619C882.042 354.446 882.145 354.343 883.998 355.274C885.131 355.895 891.103 360.24 897.281 364.895ZM126.863 366.861C125.627 374.103 125.318 381.551 125.73 395.31C126.245 417.967 128.613 428.519 137.16 446.106C145.912 464.003 159.813 481.177 178.965 497.522L184.629 502.385L178.451 507.764C168.051 516.765 150.855 534.559 145.294 542.111C135.409 555.456 127.275 573.767 124.392 588.975C121.405 605.01 121.2 633.77 123.98 651.461L124.701 655.702L115.639 649.185C75.4811 619.701 48.9149 593.113 30.3804 563.629C22.6577 551.215 12.0518 530.317 6.59443 516.558L2.99049 507.454L5.6677 500.005C21.8339 454.589 61.2713 406.794 117.699 364.378C123.362 360.136 128.099 356.722 128.201 356.826C128.304 357.033 127.687 361.481 126.863 366.861ZM188.233 512.42C190.395 522.661 195.441 536.628 201.207 547.904C212.122 569.526 230.553 587.734 252.589 598.803C255.987 600.562 258.87 602.01 259.076 602.217C259.179 602.32 257.531 607.907 255.266 614.735C249.603 632.322 248.47 639.357 248.47 657.047C248.47 668.427 248.985 674.738 250.323 680.841C253.001 692.428 259.385 708.257 265.357 718.395C269.785 725.844 270.197 726.878 268.24 726.257C261.238 724.188 239.1 715.809 227.258 710.74C198.221 698.532 169.286 683.635 143.647 667.599C128.51 658.185 129.746 661.599 134.38 642.047C140.455 616.597 151.987 582.354 163.932 554.215C169.08 542.111 186.173 506.523 186.791 506.523C186.997 506.523 187.615 509.213 188.233 512.42ZM838.897 552.042C847.238 573.457 854.652 595.699 861.036 619.287C865.67 636.253 872.98 667.496 872.98 670.186C872.98 672.876 836.22 693.773 812.228 704.636C787.825 715.705 744.474 731.947 729.647 735.568L726.764 736.189L731.294 729.258C747.666 703.705 754.874 675.565 752.3 647.633C751.373 637.081 747.563 622.804 743.857 615.356L741.385 610.493L753.536 604.183C771.143 595.079 782.676 586.906 793.179 576.25C807.08 562.181 814.288 548.525 819.642 526.179C820.775 521.317 822.01 516.972 822.319 516.351C823.143 515.006 830.557 530.731 838.897 552.042ZM143.235 687.359C157.651 705.981 176.906 719.74 198.324 726.775C214.387 732.051 225.508 733.499 250.117 733.499H272.462L272.977 758.949C273.492 786.26 274.83 797.02 279.464 811.917C287.701 838.297 304.176 859.195 330.331 876.575L339.701 882.782L333.729 883.92C300.881 890.334 248.058 891.99 217.064 887.748C193.278 884.438 171.552 878.541 154.665 870.678C146.221 866.747 146.118 866.644 142.514 859.505C129.025 832.711 122.023 795.054 122.023 749.638C121.92 723.671 122.847 710.326 126.554 684.98C129.437 664.91 128.922 665.53 134.174 674.014C136.645 678.048 140.764 684.049 143.235 687.359ZM879.673 698.015C887.293 759.88 881.012 821.641 863.404 857.229C859.182 865.816 858.874 866.126 852.386 869.333C832.719 879.058 804.815 886.196 773.615 889.403C758.993 890.852 720.585 890.852 704.11 889.3C691.548 888.162 665.291 884.541 661.584 883.506C660.245 883.093 661.996 881.437 668.792 876.885C708.126 850.608 727.896 815.641 727.69 772.398C727.69 765.88 727.072 756.569 726.352 751.81C725.528 745.81 725.425 743.12 726.146 742.913C726.764 742.707 732.427 742.293 738.605 741.879C788.545 738.982 817.789 730.913 840.648 713.636C848.68 707.532 866.081 690.256 872.98 681.462L876.584 677.014L877.408 681.462C877.82 683.945 878.85 691.394 879.673 698.015ZM292.438 744.569C303.147 751.086 316.636 756.362 329.507 759.052C338.568 760.914 342.378 761.121 355.043 760.707C370.798 760.087 379.55 758.535 393.76 753.879L402.409 751.086L406.528 759.363C419.708 786.053 437.522 805.192 460.072 816.779C469.237 821.538 488.08 828.262 492.199 828.262C496.524 828.262 493.023 830.538 477.371 837.884C441.332 854.746 407.661 866.747 371.519 875.747C359.986 878.644 350.101 881.024 349.689 881.024C347.115 881.024 324.153 841.918 310.869 814.813C299.44 791.743 292.232 774.57 284.303 751.81L278.743 735.879L281.626 737.844C283.274 738.879 288.113 741.879 292.438 744.569ZM716.981 750.879C710.185 771.777 688.562 820.09 674.043 846.367C669.307 855.057 655.509 878.954 654.17 880.817C653.861 881.23 640.887 878.127 626.883 874.196C591.256 864.264 549.862 848.539 521.545 834.366L511.145 829.09L518.25 827.228C553.981 818.124 580.959 794.95 598.772 758.121C602.479 750.569 603.818 748.603 605.156 749.121C636.665 761.638 668.174 763.19 696.388 753.673C701.536 752.017 708.435 749.224 711.833 747.672C715.231 746.121 718.217 744.879 718.423 745.086C718.526 745.189 717.908 747.879 716.981 750.879ZM516.294 844.815C545.537 873.058 566.749 885.472 593.83 889.921C605.156 891.783 629.251 891.265 642.123 888.886C646.241 888.162 649.433 887.851 649.33 888.369C648.61 890.438 621.426 923.646 609.893 936.681C575.913 974.959 543.478 997.719 506.203 1009.31C500.642 1011.06 500.231 1011.06 494.361 1009.1C484.888 1006 464.603 995.65 452.865 987.891C423.312 968.442 389.95 935.957 363.59 900.887C358.544 894.266 354.117 888.265 353.705 887.645C353.19 886.817 355.558 887.024 360.295 888.265C372.754 891.472 384.905 892.714 399.526 892.093C416.928 891.472 425.887 889.093 442.053 881.024C458.631 872.851 470.06 864.057 487.359 846.367C495.288 838.297 501.981 831.573 502.187 831.469C502.393 831.469 508.777 837.366 516.294 844.815Z" />
</svg>